# xmcd
#
# Track frame offsets: 
#        151
#        16752
#        31115
#        45469
#        60338
#        75295
#        92262
#        110261
#        123433
#        133745
#        144686
#        159112
#        179086
#        196666
#        209677
#        224097
#        237371
#        248107
#        259136
#        271081
#        283360
#        294709
#        308914
#
# Disc length: 4290 seconds
#
# Revision: 0
# Processed by: cddbd v1.5.2PL0 Copyright (c) Steve Scherf et al.
# Submitted via: ExactAudioCopy v0.95b4
#
DISCID=4910c017
DTITLE=Various Artist - American Country Specal Hit
DYEAR=2002
DGENRE=Country
TTITLE0=Yesterday Once More
TTITLE1=Take Me Home, Country Roads
TTITLE2=The Sound Of Silence
TTITLE3=Scarborough Fair
TTITLE4=4.55
TTITLE5=Stony
TTITLE6=Vincent
TTITLE7=Cotton Fields
TTITLE8=500 Miles
TTITLE9=All I Have To Do Is Dream
TTITLE10=San Francisco
TTITLE11=House Of The Rising Sun (Male)
TTITLE12=Child
TTITLE13=Jambalaya
TTITLE14=El Condor Pasa
TTITLE15=House Of The Rising Sun (Female)
TTITLE16=Devoted To You
TTITLE17=Biow'in The Wind
TTITLE18=Rain
TTITLE19=Gone The Time
TTITLE20=Rose Rose I Love You
TTITLE21=It Never Rains In Southen California
TTITLE22=Sealed With A Kiss
EXTD=
EXTT0=
EXTT1=
EXTT2=
EXTT3=
EXTT4=
EXTT5=
EXTT6=
EXTT7=
EXTT8=
EXTT9=
EXTT10=
EXTT11=
EXTT12=
EXTT13=
EXTT14=
EXTT15=
EXTT16=
EXTT17=
EXTT18=
EXTT19=
EXTT20=
EXTT21=
EXTT22=
PLAYORDER=
